<svg width="323" height="461" viewBox="0 0 323 461" fill="none" xmlns="http://www.w3.org/2000/svg">
<path d="M235.198 69.2529C251.761 61.2701 268.324 53.1911 284.791 45.1121C291.724 41.7458 298.85 40.784 306.265 42.7076C322.539 46.8433 328.605 67.8102 316.954 79.9287C312.043 85.0262 305.783 87.9116 299.428 90.6046C277.376 99.7415 255.324 108.686 233.368 117.727C225.376 120.997 217.768 125.037 210.642 129.942C207.561 132.154 204.576 134.462 201.879 137.924C215.746 140.521 223.642 149.562 229.517 161.296C234.524 171.106 242.805 178.512 250.798 185.918C255.902 190.63 256.383 193.708 252.917 200.152C259.465 200.152 262.835 206.115 268.613 207.942C271.213 208.712 272.08 211.982 272.176 214.867C272.176 215.541 272.176 216.214 271.983 216.791C269.287 225.928 267.168 235.161 268.324 244.683C272.561 243.048 277.183 240.932 281.998 239.393C289.702 236.988 295.576 242.182 294.228 250.165C292.206 262.187 287.68 273.152 280.457 282.962C278.917 285.078 277.472 286.809 278.917 289.79C279.976 292.099 278.628 294.503 277.665 296.715C271.694 311.527 261.294 322.491 248.294 331.34C237.894 338.457 226.339 342.977 214.302 346.344C208.524 347.979 202.746 349.806 196.583 353.268C205.057 355.577 212.761 357.019 220.754 355.865C242.035 352.787 253.687 361.54 256.094 382.603C257.442 394.721 257.539 406.936 255.131 418.958C254.361 422.998 255.902 423.767 259.176 424.248C267.842 425.691 276.509 427.614 284.502 431.269C287.968 432.808 292.302 434.443 292.302 438.867C292.206 443.292 287.872 444.83 284.405 446.369C271.02 452.044 256.672 454.16 242.42 456.083C202.361 461.277 162.205 462.046 121.953 459.834C96.8201 458.488 71.7831 456.372 47.4201 449.447C43.7609 448.389 40.1016 446.946 36.7312 445.311C34.0349 443.965 31.0497 442.33 31.0497 438.771C31.0497 435.501 33.9386 433.962 36.4423 432.52C41.9312 429.442 47.9979 427.807 54.0646 426.364C55.3164 426.076 56.5683 425.787 57.8201 425.402C57.9164 423.383 56.3757 422.517 55.509 421.363C49.5386 413.765 44.146 405.878 39.6201 397.414C37.2127 392.894 36.5386 388.374 39.2349 383.661C40.1979 381.93 40.3905 380.198 40.1016 378.179C39.2349 370.773 42.8942 365.964 50.2127 365.291C54.1609 364.906 55.2201 362.502 55.8942 359.52C56.2794 357.693 56.3757 355.673 56.8572 353.845C59.2646 346.151 67.2572 343.17 74.1905 347.401C77.7535 349.517 79.872 352.98 81.7979 356.442C83.1461 358.847 84.5905 361.059 87.8646 357.981C91.5238 354.519 96.1461 353.749 100.865 355.865C105.776 357.981 107.413 362.309 107.413 367.214C107.413 375.967 107.316 384.815 108.665 394.529C115.791 383.757 121.568 373.37 125.902 362.213C126.479 360.77 125.902 359.809 125.035 358.751C116.85 348.748 114.635 336.726 113.768 324.319C113.672 322.395 113.865 320.664 112.613 318.836C100.094 301.62 98.072 282.096 99.8053 261.61C99.8053 261.129 99.9979 260.648 99.9979 260.167C100.865 253.243 100.865 253.243 94.1239 252.377C90.0794 251.8 87.4794 247.664 84.109 247.183C80.7387 246.702 77.1757 248.53 73.709 246.222C66.1979 241.124 60.9979 234.103 57.1461 226.024C55.509 222.658 54.2572 219.58 50.0201 218.137C45.6868 216.599 45.0127 211.405 43.1831 207.558C42.509 206.019 41.8349 204.384 40.872 202.076C38.946 205.634 36.7312 208.039 33.8423 209.866C26.2349 214.867 19.8794 214.675 12.7534 208.904C6.10897 203.614 1.96824 196.593 0.427496 188.322C-0.631764 182.551 0.0423049 176.877 5.14601 173.126C11.309 168.605 17.9534 165.143 26.0423 168.125C31.2423 170.048 33.8423 168.413 33.9386 163.123C34.2275 149.37 37.2127 145.33 50.1164 140.329C53.7757 138.982 56.9535 137.54 59.9386 134.366C64.1757 129.845 70.9164 129.557 76.9831 128.98C78.7164 128.787 80.5461 128.98 82.6646 128.98C79.5831 122.824 79.2942 116.861 83.3387 111.283C87.5757 105.32 93.9313 103.204 100.865 102.915C105.198 102.723 108.087 102.242 105.968 96.6638C104.62 93.2014 105.294 89.3542 107.509 86.0842C109.916 82.5256 109.628 78.9669 107.894 75.3121C105.583 70.407 105.776 65.5981 108.953 61.2701C110.205 59.5389 110.398 58 110.302 55.9803C109.724 48.1898 110.879 40.6879 114.635 33.6668C117.235 28.8579 120.605 24.9146 126.287 23.7604C127.346 23.5681 127.924 23.1833 128.405 22.2216C134.279 10.7763 145.161 6.44826 156.62 3.37054C162.494 1.73551 168.561 0.966067 174.724 2.21639C179.635 3.27435 183.679 5.00557 183.872 10.8725C183.872 12.4113 184.546 12.6999 185.894 12.6999C190.709 12.6037 195.524 12.6037 200.242 11.3534C203.517 10.4878 205.924 8.5642 207.465 5.48649C209.487 1.44698 212.568 -0.476595 217.191 0.100477C221.62 0.677548 223.642 3.65907 224.894 7.6024C226.339 12.4113 227.109 17.3165 226.82 22.3177C226.628 24.5299 227.109 25.2031 229.42 25.684C233.561 26.5496 236.065 29.2426 236.642 33.6668C236.739 34.6286 237.028 35.5904 237.124 36.456C237.605 43.9579 236.45 51.556 237.413 59.1541C237.798 62.328 235.968 65.3096 234.909 68.2911C234.717 68.5797 234.235 69.0605 234.331 69.2529C234.235 70.0223 234.717 69.5414 235.198 69.2529ZM116.368 71.465C116.657 73.1962 118.005 73.8695 119.45 74.3504C119.45 74.7351 119.642 74.9274 119.931 75.0236C120.509 77.4281 121.376 80.4096 124.168 79.9287C128.694 79.0631 126.768 74.7351 127.154 71.6574C130.428 72.1383 130.524 75.3122 132.354 77.0434C134.472 74.0618 135.82 70.5032 140.346 70.5032C140.154 73.8695 139.383 77.3319 143.139 79.0631C146.894 80.7943 149.591 78.5822 152.191 76.4663C154.502 74.5427 156.717 72.3306 158.835 70.2147C162.591 66.4637 166.346 62.8089 170.583 59.635C176.842 55.0185 183.679 53.0949 191.383 54.0567C197.45 54.7299 201.976 58.1924 203.613 63.4822C194.657 60.5968 190.805 60.3083 185.991 62.5204C183.294 63.6745 180.502 64.9249 183.679 68.4835C184.45 69.3491 184.835 70.8879 184.642 72.0421C184.161 75.6969 185.894 76.0816 188.976 75.8892C191.672 75.793 194.657 76.0816 196.198 79.4478C195.235 79.6402 194.561 79.7364 193.983 79.7364C191.094 80.0249 188.398 81.2752 187.435 83.9682C186.472 86.6612 189.842 86.7574 191.191 88.0077C197.257 93.6823 199.087 103.877 195.235 111.956C191.576 119.554 183.487 123.882 175.687 122.44C178.383 121.093 181.079 119.747 183.294 117.631C189.457 111.668 189.842 103.3 183.872 97.2409C178.865 92.1434 172.702 90.7969 165.768 92.0472C157.294 93.5861 151.131 98.4912 146.316 106.474C145.546 102.531 144.968 99.3568 146.702 96.8562C149.976 92.1434 147.183 90.0275 143.716 87.9116C138.902 85.0262 133.894 84.3529 128.598 86.3727C125.902 87.4307 124.265 88.9695 125.035 92.1434C123.687 98.5874 119.546 102.915 113.287 106.57C117.716 107.436 120.702 109.456 123.687 111.283C125.131 112.918 126.576 114.553 128.02 116.092C120.124 113.399 112.035 111.187 103.657 111.379C99.4202 111.475 95.2794 111.956 91.909 114.745C87.1905 118.689 88.0572 124.171 93.835 126.287C97.5905 127.729 101.154 127.441 105.005 124.748C103.272 124.556 102.213 124.556 101.154 124.363C99.3239 124.171 97.2053 123.882 97.109 121.766C97.0127 119.554 99.4202 119.266 100.961 118.881C105.198 118.112 109.531 118.208 113.865 118.977C121.954 120.42 129.079 124.844 137.168 126.094C148.628 129.653 160.568 122.921 164.517 110.61C164.998 109.167 165.672 107.724 164.902 106.282C163.168 106.378 163.072 108.782 161.05 108.205C160.857 104.262 162.013 100.896 165.768 99.0683C170.102 96.9523 174.242 97.818 177.998 100.511C180.983 102.723 182.62 105.608 181.465 109.648C175.879 105.705 174.531 106.089 170.872 111.86C167.694 116.861 164.805 122.055 161.242 126.768C154.405 135.712 144.583 138.405 133.894 134.751C131.294 133.885 128.598 133.596 125.902 133.5C124.457 133.404 122.916 133.308 122.339 131.673C122.05 130.903 123.879 129.268 121.472 129.461C119.835 129.557 118.776 130.807 118.776 132.442C118.679 136.001 120.894 137.732 124.168 137.924C129.176 138.213 133.894 139.752 138.516 141.675C142.946 143.503 147.279 142.83 151.613 141.195C158.739 138.501 163.939 133.404 168.85 127.826C169.717 130.903 168.754 133.789 167.694 136.674C165.576 142.349 159.22 145.33 157.776 151.582C157.679 152.063 156.524 152.544 155.754 152.64C151.902 153.313 150.939 156.198 151.131 159.372C151.324 162.642 151.902 165.912 152.479 169.952C159.509 163.123 167.694 161.296 175.976 159.468C179.442 158.699 182.909 157.93 186.183 156.872C191.576 155.044 192.346 153.024 190.131 147.831C189.842 147.158 189.746 146.292 189.939 145.523C190.805 139.656 192.154 133.789 195.717 128.884C197.835 125.998 198.509 123.979 194.85 121.67C205.635 117.823 216.131 114.168 217.191 100.992C217.865 92.0472 213.724 85.3147 204.865 81.2752C208.331 80.1211 211.028 81.179 214.013 81.6599C212.857 77.909 210.161 76.1778 206.983 74.3504C223.257 69.9261 228.168 65.8867 227.687 57.8077C225.954 58.1924 224.798 60.5006 222.583 59.5389C228.168 47.9012 229.228 42.3229 227.205 35.3019C222.776 40.6879 216.805 42.0343 209.487 42.6114C217.287 32.4165 220.08 22.1254 216.035 10.4878C215.842 10.2954 215.65 10.103 215.361 9.91068C215.265 9.91068 215.072 9.91068 214.976 10.0069C210.642 17.8935 203.613 21.4521 195.042 22.1254C188.88 22.6063 182.62 22.3177 176.361 22.4139C164.613 21.7407 156.524 27.4152 150.265 37.7063C149.302 30.3968 151.709 25.0107 155.946 20.2018C158.931 16.7394 163.072 15.0082 166.828 12.6037C168.561 12.1228 170.294 11.7381 172.991 10.9686C152.094 9.23743 136.687 19.5285 130.813 38.3796C128.791 44.7273 128.02 51.1713 127.924 57.8077C124.65 54.249 124.842 49.4401 123.591 45.2082C123.783 42.1305 123.976 39.0528 124.168 35.0133C119.739 41.5535 119.161 47.8051 119.065 54.4414C119.065 57.8077 120.028 60.2121 123.205 61.4624C123.687 63.1936 125.324 64.7325 124.168 66.7523C118.872 63.2898 116.368 63.9631 115.502 69.1567C115.213 70.407 115.213 71.2726 116.368 71.465ZM96.0498 143.695C96.5313 146.292 97.0127 148.985 97.3979 151.582C97.6868 153.217 98.7461 153.409 100.191 153.313C101.731 153.217 101.924 152.255 101.828 151.005C101.635 148.408 101.731 145.619 100.094 143.31C98.3609 138.502 95.2794 136.674 89.2127 137.444C92.6794 138.79 94.4127 141.195 96.0498 143.695ZM89.6942 142.637C84.6868 137.347 75.1535 136.097 69.472 140.81C75.6349 140.137 80.5461 141.579 84.3979 145.619C85.4572 148.119 86.6128 150.524 87.672 153.024C88.3461 154.66 88.5387 156.295 91.235 155.333C93.6424 154.467 94.1239 153.505 93.3535 151.197C92.4868 148.216 91.909 145.042 89.6942 142.637ZM80.7387 149.37C79.5831 146.388 77.1757 145.715 74.2868 145.523C65.909 144.945 58.2053 147.061 50.5016 149.947C44.5312 152.159 42.6053 156.102 42.4127 161.969C42.3164 165.239 43.7609 165.432 46.1683 164.758C50.5016 163.604 53.872 160.911 57.1461 158.122C62.0572 154.082 67.4498 151.101 74.0942 151.389C73.6127 155.14 70.5312 158.41 72.8423 162.739C75.1535 167.067 75.8275 167.355 78.7164 163.604C79.5831 162.45 80.4498 161.103 81.7016 160.526C85.5535 158.795 84.5905 156.198 83.2424 153.505C82.472 151.967 82.0868 150.331 80.7387 149.37ZM23.0571 178.223C15.7386 175.434 9.19046 180.243 10.4423 187.745C11.1164 191.688 12.6571 195.439 14.9683 198.709C16.3164 200.537 17.8571 202.941 20.2646 201.979C22.5757 201.018 21.6127 198.132 21.6127 195.92C21.6127 191.977 18.2423 189.091 18.4349 185.148C19.0127 185.244 19.7831 185.244 20.2646 185.533C24.8868 188.995 26.5238 193.804 26.1386 199.383C26.0423 200.248 25.5608 201.402 26.6201 201.979C27.7756 202.653 28.7386 201.595 29.509 200.921C32.0127 198.805 32.9757 195.824 32.4942 192.746C32.109 189.38 33.5534 187.937 36.4423 186.879C44.0497 184.09 51.5609 180.916 59.1683 177.839C64.7535 175.53 67.0646 172.26 65.3312 168.894C63.5979 165.432 60.4201 165.239 54.6423 168.413C47.2275 171.972 39.909 175.626 32.3979 178.897C29.9905 179.954 30.8571 181.59 30.7609 183.225C30.3757 184.763 29.7979 185.244 28.7386 183.705C27.2942 181.397 26.0423 178.897 23.0571 178.223ZM141.598 365.002C145.161 363.271 148.242 360.674 152.191 359.52C155.079 358.654 156.813 358.654 156.428 362.502C156.235 364.906 156.813 367.407 157.005 369.811C163.168 361.251 168.368 352.499 176.361 345.863C185.124 338.649 196.776 333.744 204.383 334.514C202.746 336.822 199.761 338.072 199.087 341.15C210.931 340.284 232.502 331.628 245.309 322.395C254.361 315.855 262.161 308.064 267.072 297.87C267.265 297.485 267.554 297.004 266.976 296.715C266.88 296.619 266.494 297.004 266.302 297.196C263.22 298.35 259.754 298.158 256.672 299.697C255.613 300.274 253.494 300.659 252.724 299.312C251.665 297.485 253.88 297.004 254.842 296.234C261.872 291.041 267.939 284.982 273.043 277.864C278.724 269.978 282.672 261.225 284.694 251.704C284.983 250.55 286.235 246.991 283.057 248.434C274.198 252.569 263.413 253.435 260.043 266.323C256.961 278.345 246.85 286.232 236.45 292.483C230.383 296.138 224.798 299.889 221.524 306.526C220.272 309.122 217.672 311.238 215.457 313.258C209.487 318.548 199.857 319.221 193.117 314.893C191.865 314.124 190.709 313.547 189.265 313.45C184.546 312.97 180.694 310.661 177.709 307.199C176.168 305.371 174.531 304.41 172.22 303.736C163.265 300.947 159.317 292.676 162.687 283.924C163.65 281.327 165.094 278.826 166.539 275.845C150.939 277.095 136.302 274.306 122.146 269.401C117.716 266.9 113.383 264.399 108.953 261.899C103.657 287.001 117.042 320.375 135.339 327.108C135.82 321.433 133.702 316.528 131.005 311.815C137.072 313.835 140.346 318.452 142.465 324.126C144.102 328.55 143.235 333.167 143.331 337.784C141.405 342.4 136.302 345.382 135.724 351.152C138.709 349.902 141.117 348.267 144.391 347.979C143.331 350.96 142.368 353.557 141.405 356.154C140.442 358.943 140.346 361.828 140.25 364.714C139.672 365.291 139.961 365.772 140.635 365.868C141.213 366.156 141.502 365.675 141.598 365.002ZM226.917 246.51L227.013 246.414C225.665 246.702 225.665 248.049 224.991 248.915C218.154 257.282 211.22 265.169 198.605 262.187C196.294 261.61 193.791 261.995 191.383 261.995C184.546 261.995 183.487 262.957 183.487 269.689C183.487 271.228 183.102 272.863 184.257 274.306C187.146 273.536 188.879 271.036 192.057 269.304C191.383 275.845 187.435 278.73 182.909 281.134C181.079 282.096 178.768 283.731 177.228 282.192C175.205 280.173 178.094 279.115 179.25 277.864C180.117 276.903 180.117 275.556 179.346 274.787C178.479 273.921 177.613 275.075 176.842 275.46C173.954 277.095 171.739 279.307 170.102 282.096C167.791 286.04 166.828 290.175 169.524 294.311C172.317 298.447 176.361 298.543 180.694 297.292C188.976 295.273 195.042 289.694 201.783 283.443C200.242 295.657 191.479 300.178 182.717 304.602C188.205 309.507 191.383 309.411 198.605 305.083C203.517 302.101 207.176 297.773 210.835 292.483C211.317 302.486 205.828 307.68 198.028 311.815C203.228 313.643 207.465 313.258 211.317 310.18C215.65 306.718 218.924 302.39 221.235 297.389C222.294 294.984 223.835 293.734 226.146 292.676C239.917 286.04 250.605 276.326 255.709 261.514C255.998 261.033 256.191 260.552 255.517 260.36C255.324 260.264 255.035 260.648 254.746 260.841C251.087 261.706 247.717 263.534 243.287 263.438C250.605 256.705 257.057 249.876 259.176 240.258C259.272 239.874 259.368 239.585 259.465 239.201C259.08 239.201 258.791 239.297 258.405 239.297C255.805 240.355 253.494 242.086 249.931 241.605C256.287 233.911 261.583 226.024 262.835 215.925C259.465 216.887 257.443 220.061 253.976 219.676L254.072 219.772C254.168 218.618 254.361 217.56 254.361 216.406C254.361 212.848 254.554 209.289 249.065 210.155C246.85 210.443 245.213 208.52 244.25 206.692C241.168 201.018 235.872 200.921 230.865 201.883C226.435 202.749 223.931 206.5 222.198 210.828C220.368 215.444 222.294 219.965 222.487 224.485C222.487 225.447 223.354 225.928 224.124 225.255C226.628 222.946 226.146 225.351 226.242 226.601C226.724 231.506 225.376 236.123 222.872 240.643C225.761 240.547 226.531 238.335 228.746 237.854C228.554 240.258 228.361 242.278 228.072 244.298C227.205 244.779 226.531 245.452 226.917 246.51ZM297.02 52.4216C294.709 52.0369 292.494 52.614 290.472 53.5758C268.324 64.2516 246.272 75.1198 224.124 85.7956C222.294 86.6612 221.717 87.5268 222.776 89.4504C223.45 90.7007 223.739 92.1434 224.22 93.4899C224.028 96.9524 225.376 100.319 224.509 103.877C226.435 104.262 227.687 103.396 228.939 102.819C246.176 95.4135 263.317 88.0078 280.554 80.5058C288.643 76.9472 296.731 73.5809 304.628 69.7338C309.635 67.2332 311.465 62.2319 309.731 58.1924C307.709 53.5758 302.124 50.979 297.02 52.4216ZM127.828 181.974L128.116 182.263C127.731 183.321 127.539 184.475 127.057 185.437C117.524 203.614 111.65 222.946 108.087 243.048C107.702 245.164 106.739 247.568 108.376 249.492C111.746 253.531 115.791 256.705 120.991 259.013C123.687 237.277 127.057 216.31 135.628 196.69C139.191 188.514 139.576 180.724 136.687 172.549C136.013 170.625 135.435 168.605 135.724 166.393C135.916 164.854 136.494 163.316 138.131 163.316C140.057 163.316 140.154 164.758 140.057 166.393C139.865 171.202 141.983 175.434 143.139 180.243C147.376 176.3 146.798 171.972 145.642 167.74C144.102 162.161 143.909 156.775 146.316 151.389C146.413 151.197 146.605 151.005 146.702 150.812C146.509 150.909 146.316 151.005 146.028 151.101C138.805 152.159 134.472 157.545 130.139 162.546C125.035 168.413 120.509 174.953 115.116 180.532C111.457 184.379 112.805 187.264 115.02 190.63C116.368 192.65 117.524 193.035 119.257 190.63C121.472 187.264 123.783 183.705 127.828 181.974ZM105.968 175.434C108.472 171.875 109.435 168.028 107.798 163.796C106.835 160.719 104.62 159.853 101.635 160.142C94.9905 159.757 89.309 162.065 84.5905 166.586C82.7609 168.413 81.7016 170.529 83.0498 173.03C84.3016 175.338 86.709 175.338 89.0202 175.338C91.5239 175.242 93.7387 174.376 95.8572 173.318C97.7831 172.453 99.6128 171.395 102.116 170.144C97.0128 180.243 89.4053 184.186 80.4498 181.397C78.4276 180.724 78.3312 181.974 77.7535 182.936C76.0201 185.821 73.8053 188.033 70.3387 189.38C72.1683 181.301 71.6868 180.82 63.9831 182.84C62.4424 183.225 60.9016 183.705 59.4572 184.379C48.9609 188.995 46.6498 199.96 54.3535 209.481C54.9312 205.249 54.6423 200.921 58.0127 197.267C58.7831 202.749 59.3609 207.462 61.2868 211.982C63.9831 222.85 69.1831 231.891 78.8127 239.201C78.6201 234.392 79.1979 230.544 81.8942 226.697C84.3979 233.334 87.4794 238.912 93.2572 242.471C95.2794 241.99 94.1239 240.355 94.1239 239.297C94.1239 235.834 94.7979 232.468 96.7239 229.102C98.4572 231.795 98.6498 235.161 101.442 236.7C103.946 234.295 104.909 231.506 105.583 228.525C107.413 220.253 109.724 212.078 112.42 204.095C113.094 202.268 114.346 200.344 112.324 198.421C110.205 196.401 107.894 196.016 105.198 196.69C99.9979 198.132 98.4572 200.729 99.3239 206.692C93.6424 203.807 89.309 195.92 89.6942 189.669C89.7905 187.649 91.235 187.456 92.4868 186.976C98.1683 184.571 103.079 181.109 105.968 175.434ZM210.931 384.719C210.739 384.623 210.45 384.526 210.257 384.526C210.354 384.719 210.45 384.911 210.546 385.104C212.087 393.663 208.235 399.915 201.783 405.012C194.657 410.591 186.761 414.727 178.961 419.151C177.42 420.016 174.628 420.593 175.302 422.902C175.976 424.825 178.576 424.441 180.502 424.441C192.635 423.96 201.88 418.574 208.524 408.475C209.391 407.225 209.487 405.397 211.413 404.724C211.509 405.493 211.605 406.07 211.509 406.648C211.413 407.609 211.317 408.571 211.124 409.533C209.487 418.477 203.805 424.248 196.102 428.288C194.561 429.057 192.25 429.634 192.924 431.846C193.502 433.77 195.909 433.481 197.546 433.385C199.472 433.289 201.398 432.904 203.228 432.52C207.465 431.654 211.605 430.404 215.842 429.73C223.835 428.384 230.961 429.346 234.331 437.713C234.909 439.156 235.968 440.887 237.798 440.502C239.628 440.118 240.302 438.098 240.88 436.463C248.005 418.574 249.354 400.011 246.465 381.256C244.25 367.022 237.605 362.79 223.161 364.714C219.694 365.195 216.228 365.579 212.665 365.291C201.687 364.521 191.191 361.828 180.983 358.174C179.731 357.693 178.191 356.346 177.035 357.596C173.472 361.347 170.294 365.387 167.887 370.677C174.242 370.196 179.635 370.869 185.028 371.542C195.042 372.793 205.154 373.947 214.687 377.313C219.983 379.14 221.813 382.218 221.042 387.604C220.561 391.067 219.309 394.24 216.709 397.318C216.035 387.412 215.746 386.739 210.931 384.719ZM244.154 191.784C232.694 181.493 224.124 170.914 217.576 158.507C214.205 152.063 208.331 148.023 200.724 147.061C198.894 146.773 198.124 146.869 198.317 149.081C198.991 156.391 196.776 160.046 189.842 162.546C185.22 164.181 180.309 165.528 175.494 166.49C161.339 169.567 151.613 177.55 145.065 190.534C134.279 212.367 130.139 235.642 127.924 259.494C127.635 262.476 129.465 262.957 131.487 263.534C146.028 267.958 160.761 268.343 175.687 266.515C177.517 266.323 178.479 265.457 178.961 263.63C180.213 258.725 183.679 256.609 188.591 256.801C190.998 256.897 193.405 256.705 195.813 256.801C198.317 256.994 199.376 256.128 198.991 253.531C197.45 242.855 197.45 232.179 199.087 221.504C199.761 216.791 198.894 212.463 197.739 207.942C195.524 199.19 194.368 190.438 198.028 180.051C199.857 191.592 201.687 201.691 209.198 209.866C215.939 195.151 227.783 190.438 244.154 191.784ZM109.435 419.151C105.294 415.592 104.042 412.226 102.887 408.763C98.5535 395.876 97.9757 382.41 98.1683 368.945C98.1683 367.118 98.8424 364.81 96.5313 363.944C94.6053 363.271 93.1609 364.81 92.1016 366.156C89.0201 370.1 85.2646 369.715 81.3164 367.984C77.9461 366.541 75.8275 363.752 73.8053 360.77C72.1683 358.27 71.3016 353.653 67.6423 354.519C63.9831 355.384 64.0794 359.905 63.7905 363.079C62.5386 378.275 65.1387 392.702 72.1683 406.359C72.8424 407.705 75.1535 409.437 72.9387 410.687C71.0127 411.841 70.0498 409.341 68.9905 407.994C62.6349 399.626 58.2053 390.297 55.509 380.102C55.1238 378.563 54.835 376.832 53.9683 375.582C52.6201 373.658 49.346 372.889 49.2497 375.389C49.0571 380.583 48.2868 385.392 46.2646 390.105C45.9757 390.778 46.7461 391.932 47.1312 392.702C56.2794 409.052 67.2572 423.96 82.0868 435.693C86.6127 439.348 91.7164 442.041 97.4942 443.003C106.161 444.446 113.383 439.252 113.672 430.596C113.865 425.21 115.598 420.69 118.005 416.169C126.094 401.358 135.242 387.316 147.087 375.197C149.302 372.889 151.709 370.484 150.65 366.637C145.354 367.791 141.694 371.061 137.65 374.235C135.724 370.292 135.82 366.349 135.531 361.155C129.368 377.121 121.568 390.874 112.998 404.147C110.302 408.475 107.22 412.514 109.435 419.151ZM127.924 416.939C140.635 416.939 152.865 416.939 165.191 416.939C166.346 416.939 167.309 416.939 168.272 415.977C171.835 412.13 176.65 410.206 181.079 407.706C187.339 404.147 193.598 400.588 198.894 395.587C202.554 392.221 202.168 388.277 200.82 384.142C199.761 380.872 196.776 382.314 194.657 381.737C191.768 380.968 188.687 380.679 185.702 380.198C175.398 378.467 165.191 379.044 154.983 380.775C153.731 380.968 153.154 381.93 152.383 382.699C142.561 392.894 134.761 404.532 127.924 416.939ZM129.368 145.619C123.976 144.272 118.872 143.695 114.442 140.425C112.228 138.79 108.472 141.387 108.568 144.272C108.665 146.965 109.146 149.658 109.435 152.351C109.531 153.505 110.013 154.179 111.265 153.602C117.331 150.909 123.398 148.216 129.368 145.619ZM122.146 326.435C121.857 335.86 124.168 343.458 129.368 350.96C130.813 345.574 132.257 340.957 135.916 337.207C130.716 334.61 126.479 331.147 122.146 326.435ZM168.946 70.9841C174.628 72.523 176.168 76.2739 176.072 81.5638C179.25 78.0051 180.309 74.8313 177.709 71.5612C175.687 68.6758 172.798 68.772 168.946 70.9841ZM115.116 98.5874C117.62 96.8562 118.583 94.8364 119.161 92.5281C119.546 90.9893 119.065 89.6428 117.428 89.0657C115.791 88.4886 114.828 89.6428 114.154 90.9893C112.998 93.5861 114.057 95.8944 115.116 98.5874ZM162.591 84.8339C160.279 80.3135 160.279 80.3135 156.331 83.3912C158.354 84.353 160.279 85.2186 162.591 84.8339ZM169.042 75.4083C167.983 75.6007 166.442 75.9854 166.442 77.8128C166.442 78.9669 167.502 79.2555 168.561 79.1593C170.102 79.0631 171.45 78.3899 171.546 76.7548C171.45 75.793 170.487 75.216 169.042 75.4083Z" fill="#050505"/>
<path d="M244.154 191.784C227.783 190.438 216.035 195.151 209.198 210.058C201.687 201.883 199.954 191.784 198.028 180.243C194.368 190.534 195.62 199.383 197.739 208.135C198.894 212.655 199.761 216.983 199.087 221.696C197.45 232.372 197.45 243.048 198.991 253.723C199.376 256.32 198.413 257.186 195.813 256.994C193.405 256.801 190.998 256.994 188.591 256.994C183.68 256.897 180.213 258.917 178.961 263.822C178.48 265.65 177.613 266.419 175.687 266.708C160.761 268.535 145.931 268.15 131.487 263.726C129.465 263.149 127.635 262.572 127.924 259.687C130.139 235.834 134.183 212.559 145.065 190.726C151.517 177.646 161.339 169.76 175.494 166.682C180.309 165.624 185.124 164.374 189.842 162.739C196.776 160.238 198.894 156.583 198.317 149.273C198.124 147.061 198.894 146.965 200.724 147.254C208.331 148.216 214.205 152.351 217.576 158.699C224.124 170.914 232.694 181.493 244.154 191.784ZM159.798 200.344C161.05 200.729 162.302 201.114 163.554 201.498C164.324 202.46 165.48 202.172 166.539 202.268C164.228 205.923 161.917 209.674 159.509 213.425C171.835 217.176 183.391 211.79 187.724 200.537C190.131 194.381 187.917 190.053 181.561 188.611C173.665 186.783 166.828 189.284 160.857 194.574C160.087 194.766 159.798 195.343 159.702 196.016C159.509 196.497 159.413 196.882 159.22 197.363C158.161 197.651 156.139 196.69 156.235 198.613C156.428 200.537 158.354 200.248 159.798 200.344ZM134.761 254.878C134.761 256.224 134.761 257.571 136.398 257.955C138.613 258.436 138.613 256.513 138.902 255.262C139.191 253.82 139.287 252.377 139.479 251.03C142.079 231.987 146.413 213.328 154.598 195.824C158.835 186.879 165.287 181.012 174.82 178.127C183.102 175.626 191.48 173.607 199.28 169.663C202.939 167.836 206.117 165.528 207.85 161.584C208.428 160.238 209.102 158.699 207.368 157.833C205.828 157.064 204.961 158.218 204.383 159.372C202.265 163.796 198.317 165.912 194.08 167.451C186.954 169.952 179.828 172.26 172.702 174.472C162.88 177.454 156.139 183.802 151.517 192.746C146.317 202.941 143.042 213.713 140.25 224.774C137.746 234.584 136.109 244.683 134.761 254.878Z" fill="#BD271C"/>
<path d="M122.146 269.497C136.398 274.498 150.939 277.287 166.539 275.941C165.094 278.922 163.65 281.423 162.687 284.02C159.317 292.772 163.265 301.043 172.22 303.833C174.435 304.506 176.072 305.468 177.709 307.295C180.694 310.757 184.546 313.066 189.265 313.547C190.806 313.739 191.865 314.22 193.117 314.989C199.857 319.317 209.487 318.548 215.457 313.354C217.769 311.334 220.272 309.219 221.524 306.622C224.798 299.985 230.383 296.331 236.45 292.58C246.85 286.328 256.961 278.441 260.043 266.419C263.317 253.531 274.198 252.666 283.057 248.53C286.235 246.991 284.983 250.646 284.694 251.8C282.672 261.322 278.724 269.978 273.043 277.96C267.939 285.078 261.776 291.041 254.843 296.331C253.783 297.1 251.665 297.581 252.724 299.408C253.494 300.755 255.613 300.37 256.672 299.793C259.754 298.254 263.22 298.447 266.302 297.292C266.591 297.485 266.88 297.773 267.072 297.966C262.065 308.161 254.361 315.951 245.309 322.491C232.502 331.628 210.931 340.284 199.087 341.246C199.761 338.168 202.746 336.918 204.383 334.61C196.776 333.84 185.124 338.745 176.361 345.959C168.368 352.595 163.168 361.347 157.006 369.907C156.813 367.407 156.139 365.002 156.428 362.598C156.717 358.751 155.08 358.751 152.191 359.616C148.243 360.77 145.161 363.367 141.598 365.098C143.043 358.751 147.857 355.769 153.346 353.653C160.954 350.768 164.998 342.593 162.494 334.129C159.991 335.668 158.45 338.649 154.983 338.745C154.983 335.283 155.272 331.917 154.887 328.647C154.02 321.241 151.324 314.797 144.198 311.142C144.102 311.046 144.005 311.046 143.813 310.95C143.909 310.95 144.102 311.046 144.198 311.046C143.909 313.45 145.161 315.662 145.546 317.971C146.798 324.896 147.28 331.724 143.139 338.072C143.043 333.552 143.909 328.839 142.272 324.415C140.154 318.74 136.88 314.124 130.813 312.104C122.628 298.831 118.872 284.885 122.146 269.497Z" fill="#EFCF24"/>
<path d="M123.398 45.4968C124.746 49.7287 124.457 54.5376 127.731 58.0962C128.117 61.6548 128.502 65.1172 131.68 68.5797C131.294 56.7497 132.643 46.0739 137.265 36.0713C143.139 23.4719 152.383 15.0082 166.635 12.8922C162.88 15.2005 158.739 17.0279 155.754 20.4904C151.517 25.2993 149.109 30.6853 150.072 37.9949C156.331 27.7999 164.42 22.1254 176.168 22.7025C174.339 23.1834 172.509 23.6643 170.68 24.2413C164.228 26.2611 159.894 30.2044 158.931 38.1872C166.731 31.1662 175.494 28.7617 184.931 28.377C190.902 28.0885 196.68 27.4152 202.361 25.4917C209.68 23.0872 214.494 18.5668 215.65 10.6801C219.694 22.2216 216.902 32.6089 209.102 42.8038C216.42 42.2267 222.391 40.9764 226.82 35.4942C228.843 42.5153 227.783 48.0936 222.198 59.7312C224.413 60.693 225.569 58.3847 227.302 58C227.783 66.079 222.872 70.1185 206.598 74.5427C209.776 76.3701 212.472 78.1014 213.628 81.8523C210.643 81.3714 207.946 80.3135 204.48 81.4676C213.339 85.5071 217.48 92.2396 216.806 101.184C215.843 114.361 205.25 118.016 194.465 121.863C198.22 124.171 197.45 126.191 195.331 129.076C191.768 133.885 190.42 139.752 189.554 145.715C189.457 146.484 189.457 147.35 189.746 148.023C191.961 153.217 191.191 155.237 185.798 157.064C182.428 158.218 178.961 158.891 175.591 159.661C167.309 161.488 159.028 163.316 152.094 170.144C151.613 166.105 150.939 162.835 150.746 159.565C150.554 156.295 151.517 153.505 155.368 152.832C156.139 152.736 157.294 152.255 157.391 151.774C158.835 145.523 165.191 142.637 167.309 136.866C168.368 133.981 169.331 131.096 168.465 128.018C169.428 124.363 172.605 123.786 175.398 122.632C183.198 124.075 191.287 119.651 194.946 112.149C198.798 104.07 196.968 93.8747 190.902 88.2001C189.554 86.9498 186.183 86.8536 187.146 84.1606C188.109 81.4676 190.805 80.2173 193.694 79.9288C194.368 79.8326 194.946 79.7364 195.909 79.6402C194.368 76.274 191.383 75.9854 188.687 76.0816C185.605 76.274 183.872 75.8893 184.354 72.2345C184.546 71.0803 184.065 69.5415 183.391 68.6758C180.213 65.0211 183.005 63.8669 185.702 62.7128C190.517 60.5969 194.368 60.7892 203.324 63.6746C201.687 58.3848 197.161 54.9223 191.094 54.2491C183.391 53.3834 176.554 55.307 170.294 59.8274C166.057 63.0013 162.302 66.6561 158.546 70.4071C156.331 72.523 154.213 74.7351 151.902 76.6587C149.302 78.7746 146.509 80.9867 142.85 79.2555C139.094 77.5243 139.768 74.0619 140.057 70.6956C135.628 70.6956 134.183 74.2542 132.065 77.2357C130.235 75.5045 130.042 72.3307 126.865 71.8498C126.576 74.9275 128.405 79.2555 123.88 80.1211C121.183 80.602 120.22 77.6205 119.642 75.216C124.939 75.6969 125.998 74.4466 124.554 69.2529C124.361 68.4835 123.976 67.8102 123.687 67.137C124.842 65.1172 123.302 63.5784 122.724 61.8472C122.917 56.2688 122.339 50.8828 123.398 45.4968ZM144.294 63.8669C143.717 66.8485 141.309 70.2147 144.968 72.523C148.435 74.6389 150.746 71.465 153.346 69.7338C153.635 69.5415 153.828 69.3491 154.02 69.0606C162.687 59.6351 171.931 51.3637 185.413 49.8248C186.28 49.7287 187.531 49.4401 187.339 48.1898C187.243 47.1318 186.087 46.8433 185.124 46.7471C182.139 46.3624 179.154 46.0739 176.168 45.7853C169.62 42.9 162.88 42.9962 156.139 45.0159C147.183 47.7089 142.85 54.9223 144.294 63.8669ZM201.976 48.7669C204.961 52.9987 208.909 55.1147 213.917 53.7682C218.924 52.4217 222.294 49.1516 224.124 42.9C216.998 48.3822 209.968 50.3057 201.976 48.7669Z" fill="#EFCF24"/>
<path d="M109.435 419.151C107.22 412.418 110.302 408.475 112.998 404.339C121.568 391.067 129.465 377.313 135.531 361.347C135.82 366.445 135.724 370.388 137.65 374.428C141.598 371.254 145.354 367.984 150.65 366.83C151.805 370.677 149.398 373.177 147.087 375.389C135.242 387.508 126.094 401.55 118.005 416.362C115.502 420.882 113.768 425.402 113.672 430.788C113.383 439.444 106.161 444.734 97.4943 443.195C91.6202 442.234 86.6128 439.444 82.0869 435.886C67.2572 424.152 56.3758 409.244 47.1313 392.894C46.6498 392.125 45.9758 390.874 46.2647 390.297C48.2869 385.584 49.0572 380.775 49.2498 375.582C49.3461 373.081 52.6202 373.851 53.9684 375.774C54.835 377.024 55.1239 378.756 55.5091 380.295C58.2054 390.49 62.7313 399.819 68.9906 408.186C69.9535 409.533 71.0128 412.034 72.9387 410.879C75.1535 409.629 72.8424 407.802 72.1684 406.551C65.235 392.894 62.5387 378.467 63.7906 363.271C64.0795 360.097 63.9832 355.48 67.6424 354.711C71.398 353.845 72.1684 358.462 73.8054 360.963C75.7313 363.944 77.8499 366.733 81.3165 368.176C85.2647 369.907 89.0202 370.196 92.1017 366.349C93.161 365.002 94.6054 363.463 96.5313 364.137C98.9387 365.002 98.2647 367.31 98.1684 369.138C97.9758 382.603 98.4573 395.972 102.887 408.956C104.042 412.226 105.391 415.688 109.435 419.151Z" fill="#BA5002"/>
<path d="M255.613 261.322C250.509 276.229 239.82 285.847 226.05 292.483C223.739 293.541 222.198 294.888 221.139 297.196C218.828 302.198 215.65 306.526 211.22 309.988C207.368 312.97 203.131 313.45 197.931 311.623C205.731 307.487 211.22 302.294 210.739 292.291C207.08 297.581 203.42 301.909 198.509 304.891C191.287 309.315 188.109 309.315 182.62 304.41C191.48 299.985 200.146 295.465 201.687 283.25C195.043 289.502 188.976 295.08 180.598 297.1C179.154 296.427 177.517 295.946 176.361 294.984C173.761 292.772 174.917 289.887 178.768 288.444C188.494 284.693 198.702 281.327 200.339 268.535C207.85 270.843 213.435 275.556 218.25 282.673C218.539 277.287 217.094 273.632 214.88 270.555C212.665 267.573 213.339 266.227 216.131 264.303C222.391 259.975 227.206 254.589 226.917 246.222L226.82 246.318C228.072 245.933 227.302 244.683 227.783 244.009C227.976 241.99 228.168 239.97 228.457 237.565C226.243 238.046 225.472 240.258 222.583 240.355C225.087 235.834 226.435 231.218 225.954 226.313C225.857 225.062 226.339 222.658 223.835 224.966C223.065 225.639 222.198 225.158 222.198 224.197C222.006 219.676 220.08 215.156 221.909 210.539C223.643 206.307 226.146 202.556 230.576 201.595C235.583 200.537 240.976 200.633 243.961 206.404C244.924 208.231 246.561 210.155 248.776 209.866C254.265 209 254.072 212.559 254.072 216.118C254.072 217.272 253.88 218.33 253.783 219.484C253.783 219.484 253.687 219.484 253.687 219.388C257.154 219.772 259.176 216.599 262.546 215.637C261.294 225.832 255.998 233.622 249.643 241.316C253.109 241.701 255.517 239.97 258.117 239.008C258.406 239.297 258.598 239.585 258.887 239.874C256.769 249.588 250.317 256.417 242.998 263.053C247.428 263.149 250.798 261.225 254.457 260.456C255.035 260.841 255.324 261.129 255.613 261.322Z" fill="#EFCF24"/>
<path d="M210.931 384.719C215.746 386.835 216.035 387.412 216.805 397.222C219.309 394.144 220.561 390.97 221.139 387.508C221.909 382.026 220.08 379.044 214.783 377.217C205.154 373.851 195.139 372.696 185.124 371.446C179.731 370.773 174.339 370.1 167.983 370.581C170.391 365.194 173.568 361.251 177.131 357.5C178.383 356.154 179.828 357.596 181.08 358.077C191.383 361.828 201.88 364.425 212.761 365.195C216.324 365.483 219.791 365.098 223.257 364.617C237.702 362.79 244.346 366.926 246.561 381.16C249.45 399.915 248.102 418.477 240.976 436.367C240.302 438.002 239.724 440.021 237.894 440.406C236.065 440.791 235.005 439.06 234.428 437.617C231.057 429.249 223.931 428.384 215.939 429.634C211.702 430.307 207.561 431.558 203.324 432.423C201.494 432.808 199.568 433.193 197.642 433.289C195.909 433.385 193.598 433.674 193.02 431.75C192.346 429.538 194.657 428.961 196.198 428.192C203.998 424.152 209.583 418.381 211.22 409.437C211.413 408.475 211.509 407.513 211.605 406.551C211.605 405.974 211.509 405.397 211.509 404.628C209.487 405.301 209.391 407.128 208.62 408.379C201.976 418.477 192.635 423.863 180.598 424.344C178.768 424.441 176.072 424.825 175.398 422.805C174.628 420.497 177.517 419.92 179.057 419.055C186.857 414.63 194.85 410.495 201.88 404.916C208.428 399.819 212.183 393.567 210.642 385.007C210.642 384.911 210.835 384.815 210.931 384.719Z" fill="#BA5002"/>
<path d="M101.635 160.142C104.62 159.853 106.835 160.623 107.798 163.796C106.354 167.547 106.065 171.491 105.968 175.434C103.079 181.109 98.1684 184.571 92.4869 187.072C91.235 187.649 89.8869 187.841 89.6943 189.765C89.2128 196.016 93.6424 203.903 99.3239 206.788C98.4573 200.825 99.998 198.228 105.198 196.786C107.798 196.113 110.205 196.497 112.324 198.517C114.442 200.441 113.094 202.364 112.42 204.192C109.724 212.271 107.413 220.35 105.583 228.621C104.909 231.602 103.946 234.488 101.442 236.796C98.6499 235.257 98.5536 231.891 96.7239 229.198C94.798 232.564 94.2202 235.834 94.1239 239.393C94.1239 240.451 95.2795 241.99 93.2573 242.567C88.7313 232.66 85.2646 222.466 88.2498 211.02C84.5906 211.405 82.3758 213.232 80.3536 215.156C78.3313 217.079 76.7906 219.388 74.6721 221.888C72.7461 213.809 70.435 206.596 66.6795 199.864C66.198 198.998 65.8128 197.555 64.4647 197.651C63.1165 197.844 63.0202 199.286 62.635 200.248C61.0943 203.999 61.2869 208.039 61.1906 212.078C59.3609 207.654 58.7831 202.845 57.9165 197.363C54.5461 201.114 54.835 205.346 54.2572 209.578C46.5535 200.056 48.8646 189.091 59.3609 184.475C60.8054 183.802 62.3461 183.417 63.8869 182.936C71.4943 180.916 71.9758 181.397 70.2424 189.476C73.7091 188.13 75.9239 185.821 77.6572 183.032C78.235 182.07 78.3313 180.82 80.3536 181.493C89.2128 184.283 96.9165 180.339 102.02 170.24C99.5165 171.491 97.6869 172.549 95.761 173.414C93.5462 174.376 91.3313 175.338 88.9239 175.434C86.6128 175.53 84.3017 175.434 82.9535 173.126C81.5091 170.625 82.5684 168.509 84.4943 166.682C86.035 171.683 89.6943 171.106 93.4499 170.048C99.7091 168.125 102.213 164.951 101.635 160.142Z" fill="#EFCF24"/>
<path d="M175.783 122.632C172.894 123.69 169.717 124.363 168.85 128.018C164.035 133.596 158.739 138.694 151.613 141.387C147.279 143.022 142.946 143.599 138.517 141.868C133.894 139.944 129.272 138.405 124.168 138.117C120.894 137.924 118.679 136.193 118.776 132.635C118.776 131.096 119.931 129.845 121.472 129.653C123.783 129.461 122.05 131.096 122.339 131.865C122.917 133.596 124.457 133.693 125.902 133.693C128.598 133.789 131.294 134.077 133.894 134.943C144.487 138.598 154.405 135.905 161.242 126.96C164.805 122.247 167.694 117.054 170.872 112.052C174.531 106.186 175.88 105.897 181.465 109.84C182.62 105.801 180.983 102.915 177.998 100.703C174.242 97.9142 170.102 97.1448 165.768 99.2607C162.013 101.088 160.857 104.358 161.05 108.398C163.072 108.975 163.265 106.57 164.902 106.474C165.672 108.013 164.902 109.359 164.517 110.802C160.665 123.017 148.628 129.845 137.168 126.287C138.517 125.614 140.731 126.287 141.117 124.267C141.502 122.151 139.383 121.382 137.939 120.709C134.665 119.073 131.391 117.727 128.02 116.188C126.576 114.553 125.131 112.918 123.687 111.379C128.502 107.436 131.294 102.435 131.391 96.183C131.391 91.7587 129.176 90.4122 125.035 92.2396C124.265 89.0657 125.902 87.5269 128.598 86.4689C133.894 84.353 138.998 85.1224 143.717 88.0078C147.279 90.1237 149.976 92.3358 146.702 96.9524C144.968 99.453 145.45 102.627 146.317 106.57C151.131 98.6836 157.198 93.6823 165.768 92.1434C172.605 90.8931 178.865 92.2397 183.872 97.3371C189.842 103.396 189.457 111.764 183.294 117.727C181.176 119.939 178.48 121.286 175.783 122.632ZM136.687 98.5874C137.939 98.2027 139.094 97.818 140.346 97.4333C141.791 97.0486 142.465 96.0868 142.368 94.6441C142.368 93.5861 141.887 92.7205 140.828 92.432C139.383 92.0473 138.324 92.8167 137.746 94.067C137.072 95.3173 136.591 96.6638 136.013 98.0104C135.917 98.3951 135.82 98.6836 135.724 99.0683C136.109 98.876 136.398 98.6836 136.687 98.5874Z" fill="#BA5002"/>
<path d="M182.841 195.442C181.878 194.427 180.804 193.526 179.712 192.492C181.693 190.464 183.488 188.641 185.506 186.594C181.637 186.594 178.139 186.575 174.659 186.631C174.27 186.631 173.789 186.988 173.511 187.326C171.253 190.031 170.217 193.206 170.753 196.7C171.031 198.523 171.753 200.27 172.234 201.904C170.18 199.781 167.958 197.508 165.737 195.197C165.422 195.498 165.219 195.648 165.052 195.836C164.145 196.869 163.442 198.034 162.961 199.274L169.273 204.177L168.699 204.947L162.627 200.251C162.35 201.171 162.183 202.129 162.128 203.087L167.995 207.633L167.422 208.404L162.109 204.29C162.146 205.567 162.387 206.863 162.813 208.066L166.718 211.09L166.144 211.86L163.645 209.925C163.997 210.564 164.423 211.184 164.904 211.766C165.385 212.349 165.885 212.574 166.681 212.555C171.642 212.386 176.603 212.349 181.563 212.555C182.378 212.593 182.878 212.349 183.377 211.766C187.301 207.051 187.098 199.894 182.841 195.442ZM176.01 191.797C175.233 191.816 174.733 191.346 174.696 190.482C174.77 189.693 175.214 189.205 176.029 189.224C176.788 189.243 177.213 189.731 177.213 190.52C177.213 191.309 176.732 191.779 176.01 191.797Z" fill="#EFCF24"/>
<path d="M146.316 151.389C143.909 156.775 144.102 162.161 145.642 167.74C146.798 171.972 147.376 176.3 143.139 180.243C141.983 175.434 139.865 171.202 140.057 166.393C140.154 164.758 140.057 163.219 138.131 163.316C136.494 163.316 135.916 164.854 135.724 166.393C135.435 168.509 135.916 170.529 136.687 172.549C139.576 180.724 139.094 188.514 135.628 196.69C127.154 216.31 123.783 237.373 120.991 259.013C115.791 256.705 111.746 253.435 108.376 249.492C106.739 247.568 107.702 245.164 108.087 243.048C111.65 222.946 117.524 203.614 127.057 185.437C127.539 184.475 127.731 183.321 128.116 182.263C128.213 182.07 128.405 181.878 128.502 181.686C128.309 181.782 128.116 181.974 127.924 182.07C123.879 183.802 121.568 187.36 119.257 190.63C117.62 193.035 116.368 192.65 115.02 190.63C112.805 187.264 111.457 184.379 115.116 180.532C120.509 174.953 125.035 168.413 130.139 162.546C134.472 157.545 138.805 152.255 146.028 151.101L146.316 151.389Z" fill="#BD271C"/>
<path d="M226.917 246.414C227.205 254.781 222.391 260.167 216.131 264.496C213.243 266.419 212.665 267.766 214.88 270.747C217.094 273.825 218.539 277.48 218.25 282.866C213.435 275.652 207.946 271.036 200.339 268.727C198.702 281.615 188.591 284.885 178.768 288.636C174.917 290.175 173.665 292.964 176.361 295.177C177.517 296.138 179.154 296.619 180.598 297.292C176.265 298.543 172.22 298.35 169.428 294.311C166.731 290.175 167.598 286.04 170.005 282.096C171.642 279.307 173.954 276.999 176.746 275.46C177.517 274.979 178.383 273.825 179.25 274.787C180.02 275.556 179.924 276.903 179.154 277.864C177.998 279.211 175.109 280.173 177.131 282.192C178.672 283.731 181.08 282.096 182.813 281.134C187.339 278.73 191.287 275.748 191.961 269.304C188.687 271.036 187.05 273.536 184.161 274.306C183.005 272.863 183.391 271.228 183.391 269.689C183.391 263.053 184.45 261.995 191.287 261.995C193.694 261.995 196.198 261.706 198.509 262.187C211.124 265.169 218.057 257.186 224.894 248.915C225.665 248.049 225.568 246.606 226.917 246.414Z" fill="#F5F5F3"/>
<path d="M122.146 269.497C118.872 284.885 122.724 298.831 130.909 311.912C133.702 316.624 135.724 321.53 135.242 327.204C117.042 320.472 103.657 287.098 108.857 261.995C113.287 264.496 117.717 266.996 122.146 269.497Z" fill="#F8F7F7"/>
<path d="M297.02 52.4216C301.45 56.7497 300.68 60.116 294.131 63.0013C278.146 70.0224 262.161 76.9472 246.272 83.8721C238.954 87.046 231.635 90.2199 224.317 93.3938C223.835 92.0473 223.546 90.6046 222.872 89.3543C221.813 87.4307 222.391 86.6613 224.22 85.6995C246.368 75.0237 268.42 64.2516 290.569 53.4796C292.494 52.614 294.709 51.9408 297.02 52.4216Z" fill="#22898A"/>
<path d="M144.198 310.95C151.324 314.605 154.02 321.049 154.887 328.454C155.272 331.724 154.983 335.091 154.983 338.553C158.45 338.457 159.991 335.475 162.494 333.936C164.998 342.4 160.954 350.575 153.346 353.461C147.857 355.577 142.946 358.462 141.598 364.906C141.117 364.906 140.635 364.81 140.154 364.81C140.25 361.924 140.346 359.039 141.309 356.25C142.272 353.653 143.235 350.96 144.294 348.075C141.02 348.363 138.613 349.998 135.628 351.249C136.205 345.478 141.213 342.496 143.235 337.88C147.376 331.628 146.894 324.703 145.642 317.779C145.257 315.47 144.005 313.354 144.198 310.95Z" fill="#F8F7F7"/>
<path d="M61.2868 211.982C61.2868 208.039 61.0942 203.999 62.7313 200.152C63.1165 199.19 63.2128 197.748 64.5609 197.555C65.9091 197.363 66.2943 198.806 66.7757 199.767C70.5313 206.5 72.8424 213.713 74.7683 221.792C76.8868 219.195 78.4276 216.887 80.4498 215.06C82.4721 213.136 84.7832 211.405 88.3461 210.924C85.3609 222.465 88.8276 232.564 93.3535 242.471C87.5758 238.816 84.4943 233.238 81.9906 226.697C79.2943 230.544 78.7165 234.295 78.9091 239.201C69.1832 231.987 63.8868 222.85 61.2868 211.982Z" fill="#F8F7F7"/>
<path d="M128.213 116.188C131.487 117.631 134.857 119.073 138.131 120.708C139.576 121.478 141.694 122.151 141.309 124.267C140.924 126.191 138.709 125.614 137.361 126.287C129.272 125.036 122.146 120.612 114.057 119.17C109.724 118.4 105.391 118.208 101.154 119.073C99.6128 119.362 97.1091 119.65 97.3017 121.959C97.398 124.075 99.5165 124.363 101.346 124.556C102.405 124.652 103.465 124.748 105.198 124.94C101.346 127.537 97.7832 127.826 94.0276 126.479C88.2498 124.363 87.3832 118.881 92.1017 114.938C95.4721 112.149 99.7091 111.571 103.85 111.571C112.228 111.379 120.317 113.495 128.213 116.188Z" fill="#F5F5F3"/>
<path d="M74.0942 151.293C67.4498 151.101 62.0572 153.986 57.1461 158.026C53.7757 160.815 50.5016 163.508 46.1683 164.662C43.7609 165.335 42.4127 165.143 42.4127 161.873C42.509 156.006 44.5312 151.967 50.5016 149.851C58.2053 146.965 66.0053 144.849 74.2868 145.426C77.1757 145.619 79.5831 146.388 80.7387 149.274C78.7164 150.428 76.4053 150.909 74.0942 151.293Z" fill="#F5F5F3"/>
<path d="M166.635 12.8922C152.383 15.0082 143.139 23.3757 137.265 36.0713C132.643 46.0739 131.294 56.7497 131.68 68.5797C128.502 65.1172 128.02 61.6548 127.731 58.0962C127.828 51.4599 128.598 45.016 130.62 38.6682C136.494 19.9133 151.998 9.62223 172.798 11.2573C170.198 12.0267 168.465 12.4114 166.635 12.8922Z" fill="#F2F1EE"/>
<path d="M215.65 10.6801C214.398 18.4706 209.68 23.0872 202.361 25.4917C196.68 27.319 190.902 28.0885 184.931 28.377C175.494 28.7617 166.731 31.1662 158.931 38.1872C159.894 30.2044 164.228 26.2611 170.68 24.2413C172.509 23.6643 174.339 23.1834 176.168 22.7025C182.428 22.6063 188.591 22.8947 194.85 22.4138C203.42 21.7406 210.45 18.182 214.783 10.2954C214.88 10.1992 215.072 10.103 215.168 10.1992C215.265 10.2954 215.457 10.4878 215.65 10.6801Z" fill="#F5F5F3"/>
<path d="M125.131 92.2395C129.272 90.4121 131.487 91.6625 131.487 96.1829C131.391 102.434 128.598 107.436 123.783 111.379C120.702 109.552 117.717 107.628 113.383 106.666C119.642 103.012 123.88 98.6835 125.131 92.2395Z" fill="#F5F5F3"/>
<path d="M122.146 326.435C126.479 331.051 130.717 334.61 135.82 337.207C132.257 340.958 130.717 345.574 129.272 350.96C124.168 343.458 121.761 335.86 122.146 326.435Z" fill="#F5F5F3"/>
<path d="M74.0942 151.293C76.4053 151.005 78.7165 150.524 80.835 149.37C82.1832 150.428 82.5683 151.967 83.2424 153.409C84.5906 156.102 85.5535 158.699 81.7017 160.43C80.4498 161.007 79.5831 162.354 78.7165 163.508C75.8276 167.259 75.1535 166.97 72.8424 162.642C70.5313 158.314 73.6127 155.044 74.0942 151.293Z" fill="#EFCF24"/>
<path d="M54.6424 168.317C57.8202 170.24 58.1091 172.549 54.7388 173.895C46.7462 177.069 39.1387 181.109 30.761 183.128C30.8573 181.493 30.0869 179.858 32.398 178.8C39.9091 175.53 47.2276 171.875 54.6424 168.317Z" fill="#22898A"/>
<path d="M101.635 160.142C102.213 164.951 99.7092 168.125 93.4499 169.952C89.7906 171.01 86.035 171.587 84.4943 166.586C89.3091 162.065 94.9905 159.757 101.635 160.142Z" fill="#F5F5F3"/>
<path d="M123.398 45.4968C122.339 50.8828 123.013 56.2688 123.109 61.751C119.835 60.5007 118.968 58.0962 118.968 54.7299C118.968 48.1898 119.546 41.842 124.072 35.3019C123.687 39.3414 123.591 42.4191 123.398 45.4968Z" fill="#F5F5F3"/>
<path d="M123.976 67.0408C124.265 67.7141 124.65 68.3873 124.842 69.1567C126.287 74.2542 125.131 75.6007 119.931 75.1198C119.642 75.0236 119.45 74.8313 119.45 74.4465C119.546 72.3306 118.198 71.5612 116.368 71.465C116.657 70.5032 115.983 69.9262 115.405 69.4453C116.272 64.2516 118.679 63.5784 123.976 67.0408Z" fill="#F5F5F3"/>
<path d="M84.3979 145.619C80.5461 141.579 75.6349 140.04 69.472 140.81C75.1535 136.097 84.6869 137.251 89.5981 142.637C89.1166 145.523 86.3238 144.849 84.3979 145.619Z" fill="#F2F1EE"/>
<path d="M84.3979 145.619C86.2275 144.753 89.0203 145.523 89.6943 142.541C91.9091 145.042 92.487 148.119 93.4499 151.101C94.124 153.409 93.6425 154.371 91.3314 155.237C88.6351 156.198 88.4425 154.563 87.7684 152.928C86.7091 150.524 85.5535 148.119 84.3979 145.619Z" fill="#EFCF24"/>
<path d="M168.946 70.9841C172.702 68.772 175.591 68.6759 177.805 71.5612C180.309 74.8313 179.346 78.0052 176.168 81.5638C176.168 76.274 174.628 72.523 168.946 70.9841Z" fill="#F2F1EE"/>
<path d="M100.094 143.407C101.635 145.715 101.539 148.408 101.828 151.101C101.924 152.351 101.731 153.217 100.191 153.409C98.7462 153.505 97.6869 153.313 97.398 151.678C96.9165 149.081 96.5313 146.388 96.0499 143.791C97.398 143.599 98.7462 143.503 100.094 143.407Z" fill="#EFCF24"/>
<path d="M115.116 98.5874C114.057 95.8944 112.998 93.5861 114.25 90.9892C114.924 89.5466 115.887 88.4886 117.524 89.0657C119.065 89.5466 119.546 90.9893 119.257 92.5281C118.583 94.7402 117.62 96.8562 115.116 98.5874Z" fill="#F2F1EE"/>
<path d="M100.094 143.407C98.7462 143.503 97.3979 143.599 96.0498 143.695C94.4127 141.195 92.6795 138.79 89.3091 137.54C95.2795 136.77 98.4573 138.598 100.094 143.407Z" fill="#F2F1EE"/>
<path d="M107.798 163.796C106.354 167.547 106.065 171.491 105.968 175.434C108.472 171.875 109.435 168.028 107.798 163.796Z" fill="#BC955C"/>
<path d="M162.591 84.8339C160.279 85.1224 158.354 84.353 156.331 83.3912C160.376 80.3135 160.376 80.3135 162.591 84.8339Z" fill="#F2F1EE"/>
<path d="M169.042 75.4083C170.487 75.216 171.546 75.793 171.45 76.7548C171.354 78.3898 170.102 79.0631 168.465 79.1592C167.405 79.1592 166.346 78.8707 166.346 77.8128C166.443 75.9854 167.887 75.6007 169.042 75.4083Z" fill="#F2F1EE"/>
<path d="M116.368 71.465C118.198 71.5612 119.546 72.2344 119.45 74.4465C118.005 73.8695 116.657 73.1962 116.368 71.465Z" fill="#BC955C"/>
<path d="M140.154 364.81C140.635 364.81 141.117 364.906 141.598 364.906C141.598 365.579 141.213 366.06 140.539 365.964C139.865 365.964 139.576 365.483 140.154 364.81Z" fill="#BD965C"/>
<path d="M227.879 244.202C227.398 244.875 228.168 246.125 226.917 246.51C226.531 245.452 227.205 244.779 227.879 244.202Z" fill="#F5F5F3"/>
<path d="M115.405 69.4453C116.079 70.0224 116.754 70.5032 116.368 71.465C115.213 71.2726 115.213 70.4071 115.405 69.4453Z" fill="#BC955C"/>
<path d="M235.198 69.2529C234.717 69.5414 234.235 70.0223 233.85 69.2528C233.754 69.0605 234.235 68.6758 234.428 68.2911C234.717 68.5796 234.909 68.9644 235.198 69.2529Z" fill="#FDFDFD"/>
<path d="M266.302 297.196C266.494 297.004 266.88 296.715 266.976 296.715C267.554 297.004 267.265 297.389 267.072 297.87C266.88 297.677 266.591 297.485 266.302 297.196Z" fill="#BD965C"/>
<path d="M146.028 151.101C146.22 151.005 146.413 150.909 146.702 150.812C146.605 151.005 146.413 151.197 146.316 151.389L146.028 151.101Z" fill="#1E8254"/>
<path d="M258.309 239.104C258.694 239.104 258.983 239.008 259.368 239.008C259.272 239.393 259.176 239.681 259.08 240.066C258.887 239.778 258.598 239.489 258.309 239.104Z" fill="#BD955B"/>
<path d="M254.65 260.648C254.939 260.456 255.228 260.167 255.42 260.167C255.998 260.456 255.806 260.937 255.613 261.322C255.324 261.129 255.035 260.841 254.65 260.648Z" fill="#BD955B"/>
<path d="M210.546 385.007C210.45 384.815 210.354 384.623 210.257 384.43C210.45 384.526 210.739 384.623 210.931 384.623C210.835 384.815 210.643 384.911 210.546 385.007Z" fill="#F94A01"/>
<path d="M144.294 310.854C144.198 310.854 144.005 310.757 143.909 310.757C144.005 310.854 144.102 310.854 144.294 310.854Z" fill="#F8F7F7"/>
<path d="M176.168 45.6891C179.154 45.9776 182.139 46.3623 185.124 46.6509C186.087 46.747 187.146 47.0356 187.339 48.0935C187.531 49.3439 186.183 49.6324 185.413 49.7286C171.931 51.2674 162.591 59.5388 154.02 68.9643C153.828 69.1567 153.539 69.4452 153.346 69.6376C150.842 71.3688 148.435 74.5426 144.968 72.4267C141.309 70.2146 143.717 66.7522 144.294 63.7706C151.324 52.2292 161.82 46.6508 175.205 45.9776C175.687 46.4585 175.976 46.3623 176.168 45.6891Z" fill="#FBFBFB"/>
<path d="M175.205 46.0739C161.82 46.6509 151.324 52.3255 144.294 63.8669C142.85 54.9223 147.183 47.7089 156.235 44.9197C162.88 42.9 169.62 42.7076 176.265 45.6891L176.168 45.7853C175.591 45.3045 175.302 45.4006 175.205 46.0739Z" fill="#040906"/>
<path d="M201.976 48.7669C209.968 50.3057 216.998 48.3821 224.124 42.9961C222.391 49.2478 218.924 52.4216 213.917 53.8643C208.909 55.2108 204.961 52.9987 201.976 48.7669Z" fill="#F5F5F3"/>
<path d="M253.88 219.484C253.976 219.484 253.976 219.58 253.88 219.484V219.484Z" fill="#060505"/>
<path d="M136.013 97.914C136.591 96.5675 137.072 95.2211 137.746 93.9707C138.42 92.7204 139.383 91.951 140.828 92.3357C141.887 92.6242 142.272 93.4898 142.368 94.5478C142.368 95.9905 141.791 96.9523 140.346 97.337C139.094 97.7217 137.939 98.1064 136.687 98.4911C136.494 98.3949 136.302 98.1064 136.013 97.914Z" fill="#060505"/>
<path d="M136.687 98.5874C136.398 98.6836 136.013 98.8759 135.724 98.9721C135.82 98.5874 135.917 98.2988 136.013 97.914C136.302 98.1064 136.494 98.3951 136.687 98.5874Z" fill="#060505"/>
<path d="M127.828 181.974C128.02 181.878 128.213 181.686 128.405 181.59C128.309 181.782 128.117 181.974 128.02 182.167C128.117 182.263 127.828 181.974 127.828 181.974Z" fill="#060505"/>
<path d="M175.205 46.0739C175.302 45.4006 175.687 45.3044 176.168 45.6891C175.976 46.3623 175.687 46.4586 175.205 46.0739Z" fill="#BC955C"/>
</svg>
